<?xml version="1.0" encoding="utf-8"?>
<!-- Generator: Adobe Illustrator 16.0.0, SVG Export Plug-In . SVG Version: 6.00 Build 0)  -->
<!DOCTYPE svg PUBLIC "-//W3C//DTD SVG 1.1//EN" "http://www.w3.org/Graphics/SVG/1.1/DTD/svg11.dtd">
<svg version="1.1" id="Layer_1" xmlns="http://www.w3.org/2000/svg" xmlns:xlink="http://www.w3.org/1999/xlink" x="0px" y="0px"
	 width="612px" height="612px" viewBox="0 0 612 612" enable-background="new 0 0 612 612" xml:space="preserve">
<g id="g10" transform="matrix(1.3333333,0,0,-1.3333333,0,977.33333)">
	<g id="g12" transform="scale(0.1)">
		<path id="path14" fill="#B4B4B4" d="M2292.429,7303.18L151.556,6549.763l338.291-2804.931L2294.7,2752.854l1814.158,1005.417
			L4447.032,6563.1L2292.429,7303.18z"/>
		<path id="path16" fill="#B02C2D" d="M4233.516,6401.004l-1946.085,663.618V2989.852l1630.91,902.607L4233.516,6401.004z"/>
		<path id="path18" fill="#DF2F31" d="M391.791,6389.015L681.68,3880.491l1605.729-890.64v4074.844L391.791,6389.015z"/>
		<path id="path20" fill="#F3F3F3" d="M2738.518,5037.905l-447.539,934.6l-394.014-934.6H2738.518z M2909.144,4644.928H1722.818
			l-265.397-663.838l-493.671-9.141l1323.692,2944.71l1369.827-2944.71H3199.71L2909.144,4644.928z"/>
		<path id="path22" fill="#B4B4B4" d="M2287.431,6916.659l3.527-944.154l447.085-935.325h-449.604l-1.007-391.645l621.684-0.607
			l290.574-673.067l472.361-8.76L2287.431,6916.659z"/>
	</g>
</g>
</svg>
