<?xml version="1.0" encoding="utf-8"?>
<!-- Generator: Adobe Illustrator 16.0.0, SVG Export Plug-In . SVG Version: 6.00 Build 0)  -->
<!DOCTYPE svg PUBLIC "-//W3C//DTD SVG 1.1//EN" "http://www.w3.org/Graphics/SVG/1.1/DTD/svg11.dtd">
<svg version="1.1" id="Layer_1" xmlns="http://www.w3.org/2000/svg" xmlns:xlink="http://www.w3.org/1999/xlink" x="0px" y="0px"
	 width="612px" height="612px" viewBox="0 0 612 612" enable-background="new 0 0 612 612" xml:space="preserve">
<polygon fill="#1072BA" points="85.645,549.921 36.613,0 575.387,0 526.303,549.831 305.674,611.001 "/>
<polygon fill="#2AAAE2" points="306.453,564.216 484.511,515.232 526.229,45.796 306.453,45.796 "/>
<polygon fill="#B4B4B4" points="148.846,247.834 154.751,315.181 306.453,247.834 306.453,180.38 "/>
<polygon fill="#E6E6E5" points="474.467,108.374 306.453,180.38 306.453,247.834 468.674,175.721 "/>
<polygon fill="#E6E6E5" points="306.453,424.046 305.932,424.125 230.698,403.921 225.784,350.201 158.074,350.201 167.524,456.03 
	305.916,494.35 306.453,494.223 "/>
<polygon fill="#FFFFFF" points="306.453,247.834 306.453,315.181 388.82,315.181 381.334,403.231 306.453,424.104 306.453,494.275 
	444.387,455.956 462.55,247.834 "/>
<polygon fill="#E6E6E5" points="306.453,247.834 148.846,247.834 154.751,315.181 306.453,315.181 "/>
<polygon fill="#E6E6E5" points="306.453,175.721 306.453,108.374 305.769,108.374 136.871,108.374 142.848,175.721 "/>
<polygon fill="#FFFFFF" points="306.453,108.374 306.453,174.875 306.453,175.721 468.674,175.721 474.467,108.374 "/>
</svg>
