<?xml version="1.0" encoding="utf-8"?>
<!-- Generator: Adobe Illustrator 16.0.0, SVG Export Plug-In . SVG Version: 6.00 Build 0)  -->
<!DOCTYPE svg PUBLIC "-//W3C//DTD SVG 1.1//EN" "http://www.w3.org/Graphics/SVG/1.1/DTD/svg11.dtd">
<svg version="1.1" id="Layer_1" xmlns="http://www.w3.org/2000/svg" xmlns:xlink="http://www.w3.org/1999/xlink" x="0px" y="0px"
	 width="600px" height="340px" viewBox="0 0 600 340" enable-background="new 0 0 600 340" xml:space="preserve">
<path id="outline" fill-rule="evenodd" clip-rule="evenodd" fill="#3A4E55" d="M346.564,106.894h53.448v54.637h27.023
	c12.479,0,25.314-2.225,37.133-6.229c5.808-1.968,12.327-4.708,18.055-8.155c-7.545-9.85-11.396-22.288-12.531-34.548
	c-1.539-16.676,1.825-38.381,13.11-51.433l5.618-6.499l6.695,5.381c16.855,13.542,31.03,32.465,33.529,54.037
	c20.296-5.97,44.124-4.558,62.016,5.767l7.339,4.234l-3.863,7.541c-15.128,29.528-46.76,38.675-77.684,37.056
	C470.18,283.936,369.437,338.5,247.287,338.5c-63.107,0-121.006-23.591-153.977-79.58l-0.54-0.915l-4.804-9.773
	C76.821,223.587,73.12,196.588,75.63,169.61l0.753-8.08h45.704v-54.637h53.444V53.446h106.896V0h64.136V106.894z"/>
<g id="body_colors">
	<path fill="#08AADA" d="M519.725,127.106c3.584-27.851-17.26-49.729-30.186-60.115c-14.895,17.223-17.21,62.356,6.159,81.359
		c-13.042,11.584-40.523,22.086-68.662,22.086H84.503c-2.736,29.373,2.42,56.423,14.198,79.575l3.897,7.127
		c2.467,4.188,5.163,8.229,8.076,12.12c0.001,0,0.001,0,0.001,0c14.081,0.903,27.065,1.217,38.943,0.954c0.001,0,0.003,0,0.006,0
		c23.343-0.517,42.39-3.271,56.826-8.274c2.149-0.747,4.492,0.393,5.235,2.54c0.743,2.148-0.394,4.491-2.54,5.236
		c-1.92,0.664-3.922,1.287-5.988,1.877c-0.002,0.001-0.004,0.001-0.007,0.001c-11.367,3.245-23.555,5.43-39.281,6.401
		c0.932,0.015-0.973,0.139-0.978,0.141c-0.535,0.032-1.208,0.107-1.746,0.139c-6.188,0.348-12.87,0.419-19.699,0.419
		c-7.47,0-14.828-0.141-23.051-0.558l-0.211,0.139c28.541,32.079,73.166,51.318,129.102,51.318
		c118.385,0,218.799-52.48,263.264-170.297c31.548,3.237,61.865-4.807,75.657-31.728C564.24,114.889,535.99,118.93,519.725,127.106z
		"/>
	<path fill="#2BB8EB" d="M519.725,127.106c3.584-27.851-17.26-49.729-30.186-60.115c-14.895,17.223-17.21,62.356,6.159,81.359
		c-13.042,11.584-40.523,22.086-68.662,22.086H104.787c-1.399,44.984,15.295,79.132,44.832,99.776c0.001,0,0.003,0,0.006,0
		c23.343-0.517,42.39-3.271,56.826-8.274c2.149-0.747,4.492,0.393,5.235,2.54c0.743,2.148-0.394,4.491-2.54,5.236
		c-1.92,0.664-3.922,1.287-5.988,1.877c-0.002,0.001-0.004,0.001-0.007,0.001c-11.367,3.245-24.603,5.71-40.329,6.681
		c-0.005,0-0.381-0.364-0.387-0.362c40.29,20.665,98.709,20.591,165.687-5.136c75.103-28.852,144.983-83.818,193.747-146.688
		C521.132,126.42,520.417,126.759,519.725,127.106z"/>
	<path fill="#088CB9" d="M85.144,206.125c2.129,15.733,6.73,30.467,13.557,43.887l3.897,7.127c2.467,4.188,5.163,8.229,8.078,12.12
		c14.083,0.903,27.069,1.217,38.949,0.954c23.343-0.517,42.39-3.271,56.826-8.274c2.149-0.747,4.492,0.393,5.235,2.54
		c0.743,2.148-0.394,4.491-2.54,5.236c-1.92,0.664-3.922,1.287-5.988,1.877c-0.002,0.001-0.004,0.001-0.007,0.001
		c-11.367,3.245-24.533,5.572-40.259,6.542c-0.539,0.032-1.481,0.038-2.026,0.069c-6.187,0.348-12.798,0.56-19.629,0.56
		c-7.469,0-15.106-0.143-23.33-0.56c28.54,32.077,73.444,51.388,129.38,51.388c101.348,0,189.525-38.471,240.703-123.467H85.144z"/>
	<path fill="#069BC6" d="M107.87,206.125c6.059,27.627,20.619,49.315,41.755,64.088c23.343-0.517,42.39-3.271,56.826-8.274
		c2.149-0.747,4.492,0.393,5.235,2.54c0.743,2.148-0.394,4.491-2.54,5.236c-1.92,0.664-3.922,1.287-5.988,1.877
		c-0.002,0.001-0.004,0.001-0.007,0.001c-11.367,3.245-24.812,5.572-40.538,6.542c40.286,20.663,98.537,20.365,165.509-5.359
		c40.516-15.567,79.511-38.741,114.496-66.65H107.87z"/>
</g>
<g id="Containers">
	<path fill-rule="evenodd" clip-rule="evenodd" fill="#00ACD2" d="M169.798,119.661h3.658v38.604h-3.658V119.661z M162.781,119.661
		h3.802v38.604h-3.802V119.661z M155.762,119.661h3.802v38.604h-3.802V119.661z M148.742,119.661h3.802v38.604h-3.802V119.661z
		 M141.726,119.661h3.802v38.604h-3.802V119.661z M134.853,119.661h3.655v38.604h-3.655V119.661z M130.994,115.801h46.32v46.322
		h-46.32V115.801z"/>
	<path fill-rule="evenodd" clip-rule="evenodd" fill="#00ACD2" d="M223.245,66.214h3.66v38.602h-3.66V66.214z M216.228,66.214h3.802
		v38.602h-3.802V66.214z M209.209,66.214h3.802v38.602h-3.802V66.214z M202.189,66.214h3.802v38.602h-3.802V66.214z M195.175,66.214
		h3.799v38.602h-3.799V66.214z M188.302,66.214h3.652v38.602h-3.652V66.214z M184.439,62.354h46.325v46.321h-46.325V62.354z"/>
	<path fill-rule="evenodd" clip-rule="evenodd" fill="#26C2EE" d="M223.245,119.661h3.66v38.604h-3.66V119.661z M216.228,119.661
		h3.802v38.604h-3.802V119.661z M209.209,119.661h3.802v38.604h-3.802V119.661z M202.189,119.661h3.802v38.604h-3.802V119.661z
		 M195.175,119.661h3.799v38.604h-3.799V119.661z M188.302,119.661h3.652v38.604h-3.652V119.661z M184.439,115.801h46.325v46.322
		h-46.325V115.801z"/>
	<path fill-rule="evenodd" clip-rule="evenodd" fill="#00ACD2" d="M276.694,119.661h3.656v38.604h-3.656V119.661z M269.675,119.661
		h3.804v38.604h-3.804V119.661z M262.658,119.661h3.802v38.604h-3.802V119.661z M255.639,119.661h3.802v38.604h-3.802V119.661z
		 M248.619,119.661h3.802v38.604h-3.802V119.661z M241.749,119.661h3.653v38.604h-3.653V119.661z M237.889,115.801h46.322v46.322
		h-46.322V115.801z"/>
	<path fill-rule="evenodd" clip-rule="evenodd" fill="#26C2EE" d="M276.694,66.214h3.656v38.602h-3.656V66.214z M269.675,66.214
		h3.804v38.602h-3.804V66.214z M262.658,66.214h3.802v38.602h-3.802V66.214z M255.639,66.214h3.802v38.602h-3.802V66.214z
		 M248.619,66.214h3.802v38.602h-3.802V66.214z M241.749,66.214h3.653v38.602h-3.653V66.214z M237.889,62.354h46.322v46.321h-46.322
		V62.354z"/>
	<path fill-rule="evenodd" clip-rule="evenodd" fill="#26C2EE" d="M330.143,119.661h3.656v38.604h-3.656V119.661z M323.125,119.661
		h3.802v38.604h-3.802V119.661z M316.104,119.661h3.803v38.604h-3.803V119.661z M309.086,119.661h3.801v38.604h-3.801V119.661z
		 M302.068,119.661h3.802v38.604h-3.802V119.661z M295.196,119.661h3.655v38.604h-3.655V119.661z M291.335,115.801h46.323v46.322
		h-46.323V115.801z"/>
	<path fill-rule="evenodd" clip-rule="evenodd" fill="#00ACD2" d="M330.143,66.214h3.656v38.602h-3.656V66.214z M323.125,66.214
		h3.802v38.602h-3.802V66.214z M316.104,66.214h3.803v38.602h-3.803V66.214z M309.086,66.214h3.801v38.602h-3.801V66.214z
		 M302.068,66.214h3.802v38.602h-3.802V66.214z M295.196,66.214h3.655v38.602h-3.655V66.214z M291.335,62.354h46.323v46.321h-46.323
		V62.354z"/>
	<path fill-rule="evenodd" clip-rule="evenodd" fill="#26C2EE" d="M330.143,12.765h3.656v38.604h-3.656V12.765z M323.125,12.765
		h3.802v38.604h-3.802V12.765z M316.104,12.765h3.803v38.604h-3.803V12.765z M309.086,12.765h3.801v38.604h-3.801V12.765z
		 M302.068,12.765h3.802v38.604h-3.802V12.765z M295.196,12.765h3.655v38.604h-3.655V12.765z M291.335,8.907h46.323v46.322h-46.323
		V8.907z"/>
	<path fill-rule="evenodd" clip-rule="evenodd" fill="#00ACD2" d="M383.59,119.661h3.654v38.604h-3.654V119.661z M376.572,119.661
		h3.799v38.604h-3.799V119.661z M369.55,119.661h3.803v38.604h-3.803V119.661z M362.532,119.661h3.803v38.604h-3.803V119.661z
		 M355.514,119.661h3.801v38.604h-3.801V119.661z M348.641,119.661h3.657v38.604h-3.657V119.661z M344.782,115.801h46.322v46.322
		h-46.322V115.801z"/>
</g>
<path fill-rule="evenodd" clip-rule="evenodd" fill="#D4EDF1" d="M227.864,237.226c7.056,0,12.778,5.725,12.778,12.78
	s-5.722,12.777-12.778,12.777c-7.058,0-12.78-5.722-12.78-12.777S220.806,237.226,227.864,237.226"/>
<path fill-rule="evenodd" clip-rule="evenodd" fill="#3A4E55" d="M227.864,240.851c1.169,0,2.283,0.22,3.313,0.619
	c-1.115,0.646-1.87,1.854-1.87,3.235c0,2.062,1.672,3.732,3.735,3.732c1.414,0,2.641-0.785,3.276-1.943
	c0.447,1.081,0.697,2.267,0.697,3.512c0,5.054-4.098,9.15-9.152,9.15c-5.054,0-9.154-4.097-9.154-9.15
	C218.71,244.948,222.81,240.851,227.864,240.851"/>
<path fill-rule="evenodd" clip-rule="evenodd" fill="#3A4E55" d="M1.829,210.744h279.924h34.621h279.917
	c-12.943-3.284-40.953-7.719-36.335-24.683c-23.534,27.235-80.295,19.107-94.619,5.678c-15.952,23.137-108.817,14.342-115.292-3.682
	c-19.999,23.469-81.966,23.469-101.966,0c-6.479,18.023-99.342,26.818-115.295,3.682c-14.325,13.43-71.08,21.558-94.618-5.678
	C42.784,203.025,14.775,207.46,1.829,210.744"/>
<path fill="#C0DBE0" d="M261.834,329.314c-31.647-15.019-49.019-35.433-58.684-57.722c-11.756,3.356-25.888,5.501-42.306,6.422
	c-6.186,0.348-12.692,0.524-19.521,0.524c-7.871,0-16.166-0.231-24.873-0.692c29.022,29.004,64.726,51.336,130.835,51.745
	C252.167,329.592,257.013,329.496,261.834,329.314z"/>
<path fill="#D4EDF1" d="M214.905,292.159c-4.379-5.943-8.625-13.414-11.748-20.567c-11.757,3.355-25.892,5.502-42.312,6.423
	C172.124,284.139,188.255,289.812,214.905,292.159z"/>
</svg>
